<svg xmlns="http://www.w3.org/2000/svg" fill="none" viewBox="0 0 90 108" height="108" width="90">
<path stroke-linejoin="round" stroke-linecap="round" stroke-width="5" stroke="#DF4344" d="M3 64.3592C8.35758 64.3592 15.8318 62.8239 20.5243 66.1385L29.8248 72.6963C33.2822 75.1364 37.0246 74.3332 40.8831 73.7537C45.9609 72.9861 50.5056 77.1597 50.5056 82.589C50.5056 84.0734 39.5635 87.8505 37.9853 88.5673C36.4656 89.2594 34.7788 89.5389 33.1064 89.3759C31.434 89.2128 29.8395 88.6134 28.4947 87.6421L18.0012 80.2353"></path>
<path stroke-linejoin="round" stroke-linecap="round" stroke-width="5" stroke="#DF4344" d="M50.5056 79.2541L72.0996 69.6461C74.004 69.0124 76.058 68.9223 78.0143 69.3868C79.9706 69.8513 81.7458 70.8505 83.1262 72.2641L86.6627 75.8278C87.9295 77.0987 87.6339 79.2439 86.0662 80.1183L44.6097 103.305C43.3849 103.996 42.0256 104.437 40.6163 104.601C39.2069 104.764 37.7777 104.647 36.4176 104.255L3 94.6422M45.2378 53.8361C45.2378 53.8361 56.3224 42.4539 56.3224 28.418C56.3224 14.3822 45.2378 3 45.2378 3C45.2378 3 34.1531 14.3822 34.1531 28.418C34.1531 42.4539 45.2378 53.8361 45.2378 53.8361ZM45.2378 53.8361C45.2378 53.8361 61.4267 53.4904 71.6298 43.4655C81.833 33.4356 82.1866 17.5239 82.1866 17.5239C82.1866 17.5239 75.483 17.6662 67.9877 20.4419M45.2378 53.8361C45.2378 53.8361 29.0489 53.4904 18.8458 43.4655C8.64261 33.4356 8.28896 17.5239 8.28896 17.5239C8.28896 17.5239 14.9925 17.6662 22.4879 20.4419"></path>
</svg>
